<?xml version="1.0" standalone="no"?>
<!DOCTYPE svg PUBLIC "-//W3C//DTD SVG 20010904//EN"
 "http://www.w3.org/TR/2001/REC-SVG-20010904/DTD/svg10.dtd">
<svg version="1.0" xmlns="http://www.w3.org/2000/svg"
 width="400.000000pt" height="400.000000pt" viewBox="0 0 400.000000 400.000000"
 preserveAspectRatio="xMidYMid meet">
<metadata>
Created by potrace 1.14, written by Peter Selinger 2001-2017
</metadata>
<g transform="translate(0.000000,400.000000) scale(0.100000,-0.100000)"
fill="#000000" stroke="none">
<path d="M0 2000 l0 -2000 2000 0 2000 0 0 2000 0 2000 -2000 0 -2000 0 0
-2000z m695 1661 c183 -39 235 -68 304 -168 26 -39 61 -158 61 -209 0 -41 -24
-132 -47 -180 -24 -50 -103 -121 -158 -141 -47 -18 -50 -21 -49 -53 1 -19 12
-62 24 -95 18 -47 24 -87 28 -182 5 -137 -11 -210 -69 -326 -38 -75 -32 -83
69 -93 96 -9 231 -58 322 -119 85 -57 112 -58 176 -6 27 21 72 50 99 65 28 14
57 30 65 35 16 10 86 36 195 72 61 20 94 24 258 27 119 3 206 0 235 -7 107
-26 241 -76 304 -112 36 -22 69 -39 73 -39 3 0 28 -18 56 -40 63 -50 93 -51
157 -7 108 74 218 117 332 131 87 10 95 13 98 34 2 12 -5 37 -16 55 -11 17
-32 69 -46 115 -34 110 -36 259 -5 371 12 42 27 84 34 94 22 31 6 54 -49 77
-47 19 -91 56 -149 126 -30 37 -59 161 -54 231 8 105 84 234 168 286 30 18
214 67 252 67 34 0 136 -36 174 -63 18 -12 46 -40 61 -62 44 -63 122 -253 166
-402 6 -23 15 -45 19 -49 4 -4 7 -18 7 -30 0 -13 8 -45 19 -71 10 -26 28 -100
40 -163 12 -63 26 -128 32 -145 22 -65 54 -368 65 -608 9 -215 -8 -315 -78
-450 -41 -78 -160 -203 -230 -241 -194 -106 -245 -126 -393 -151 -55 -9 -110
-19 -122 -21 -12 -2 -34 -14 -48 -27 -23 -19 -28 -35 -41 -132 -7 -61 -18
-132 -23 -160 -9 -45 -18 -114 -51 -375 -19 -152 -30 -205 -47 -217 -24 -19
-1802 -19 -1825 -1 -19 15 -52 190 -62 323 -3 43 -10 104 -16 135 -5 30 -19
123 -31 205 -11 83 -24 163 -28 179 -11 49 -46 66 -193 91 -75 13 -144 28
-154 33 -11 5 -43 19 -71 30 -112 43 -207 106 -296 194 -48 48 -87 93 -87 100
0 6 -7 19 -15 28 -23 26 -63 145 -76 228 -12 79 -7 310 11 482 21 212 32 297
41 325 6 17 23 91 39 165 16 74 35 153 44 175 8 22 15 49 16 60 0 11 12 52 26
90 14 39 33 95 43 126 10 31 38 102 62 158 52 122 96 172 190 212 68 30 99 33
164 20z m1490 -61 c164 -76 288 -237 320 -415 18 -103 18 -143 0 -249 -45
-258 -267 -454 -510 -450 -136 2 -243 50 -345 154 -108 110 -170 263 -170 420
0 224 129 438 320 530 l85 41 125 -4 c103 -3 134 -8 175 -27z"/>
<path d="M1428 1670 c-26 -3 -50 -8 -53 -12 -3 -3 -6 -142 -6 -309 0 -278 1
-304 17 -316 25 -18 187 -17 222 1 15 8 41 28 57 46 29 30 30 35 30 124 0 93
-1 97 -49 160 -5 7 2 26 18 50 31 45 36 128 11 176 -32 61 -136 95 -247 80z
m126 -111 c49 -38 27 -149 -29 -149 -31 0 -45 26 -45 85 0 51 14 85 34 85 7 0
25 -9 40 -21z m6 -257 c25 -20 36 -81 23 -132 -7 -27 -16 -37 -42 -44 -46 -13
-61 9 -61 89 0 92 31 126 80 87z"/>
<path d="M2406 1670 c-35 -11 -63 -36 -85 -75 -13 -25 -16 -64 -16 -250 0
-240 4 -259 61 -304 33 -26 113 -29 149 -5 23 15 27 15 51 -1 25 -16 27 -16
46 3 17 17 20 34 20 155 1 161 -2 167 -76 167 -76 0 -97 -31 -56 -83 23 -29
28 -125 8 -145 -18 -18 -53 -15 -71 6 -15 16 -17 46 -17 208 0 201 7 234 49
234 25 0 38 -18 46 -65 10 -52 21 -65 56 -65 52 0 77 76 45 138 -29 55 -69 83
-127 87 -30 3 -67 0 -83 -5z"/>
<path d="M1841 1652 c-16 -31 -15 -569 2 -602 12 -24 18 -25 107 -28 83 -2
101 0 139 20 62 32 81 72 81 173 0 71 -3 85 -25 115 -30 41 -30 45 -5 95 24
46 26 124 6 163 -8 15 -29 38 -48 52 -29 22 -44 25 -140 28 -98 3 -107 2 -117
-16z m184 -97 c46 -45 25 -145 -30 -145 -13 0 -27 6 -31 12 -9 13 -7 136 2
150 10 15 35 8 59 -17z m14 -261 c29 -37 29 -126 1 -154 -31 -31 -66 -26 -79
11 -12 35 -4 136 12 157 16 20 44 14 66 -14z"/>
</g>
</svg>
